<?xml version="1.0" encoding="UTF-8"?>
<svg version="1.1" xmlns="http://www.w3.org/2000/svg" width="512" height="512">
<path d="M0 0 C0.8792221 -0.00297112 1.75844419 -0.00594224 2.66430938 -0.0090034 C5.62312945 -0.0177039 8.58190911 -0.01919989 11.54074097 -0.02069092 C13.65822944 -0.02531876 15.77571707 -0.03034337 17.89320374 -0.03573608 C23.66104936 -0.04887998 29.42888332 -0.05531087 35.19674158 -0.05974674 C38.80863126 -0.062679 42.42051777 -0.06678447 46.03240585 -0.07125092 C57.35562727 -0.08494148 68.67884143 -0.09459608 80.00207055 -0.09845281 C93.02687303 -0.10291406 106.05156954 -0.1203649 119.07633984 -0.1494534 C129.16588173 -0.17119412 139.25539412 -0.18116392 149.34495914 -0.18249393 C155.35798584 -0.18353469 161.37091315 -0.18928323 167.38391495 -0.20731354 C233.84032853 -0.39505507 294.60937965 10.51281297 344.84103394 57.67559814 C346.95048832 59.63593057 349.08283711 61.50098872 351.30587769 63.32794189 C355.1311364 66.57528382 358.26236014 70.31506887 361.49337769 74.14044189 C362.30677612 75.05438721 363.12017456 75.96833252 363.95822144 76.90997314 C387.76434315 103.86735252 403.47672653 137.24475288 411.49337769 172.14044189 C411.71783569 173.11513428 411.9422937 174.08982666 412.17355347 175.09405518 C418.47590838 204.07134474 418.14131234 237.27227481 411.49337769 266.14044189 C411.25731812 267.16798584 411.02125854 268.19552979 410.77804565 269.25421143 C402.17041075 305.29972318 385.03022602 337.50144134 360.49337769 365.14044189 C359.62583862 366.13044189 358.75829956 367.12044189 357.86447144 368.14044189 C353.03240406 373.57006264 348.07244029 378.49446293 342.49337769 383.14044189 C341.52658081 383.98348877 340.55978394 384.82653564 339.56369019 385.69512939 C295.2612576 424.22221815 240.62954478 438.69930226 182.90859544 438.5326159 C179.34309011 438.52569111 175.77762448 438.53637053 172.21212769 438.54455566 C165.27053047 438.55774757 158.32903169 438.55508358 151.38743094 438.54631774 C145.74686245 438.53949377 140.1063212 438.53864458 134.46574974 438.54188919 C133.25365785 438.54257874 133.25365785 438.54257874 132.01707926 438.54328222 C130.37487099 438.54424152 128.73266273 438.54521416 127.09045448 438.54619999 C111.77567612 438.55470842 96.46095207 438.54498632 81.14618262 438.52879889 C68.01603777 438.51535111 54.88597235 438.51776915 41.75582886 438.53155518 C26.45980801 438.54760801 11.16383422 438.55393576 -4.13219386 438.54471838 C-5.76196054 438.54376282 -7.39172722 438.5428197 -9.02149391 438.54188919 C-9.82315926 438.54142636 -10.6248246 438.54096354 -11.45078283 438.54048669 C-17.09185615 438.53789953 -22.73289946 438.54226084 -28.37396812 438.54932785 C-35.23641461 438.55773758 -42.09875813 438.5554718 -48.96119281 438.53948562 C-52.4598029 438.53160328 -55.95824124 438.52851127 -59.45685005 438.53843307 C-63.24804261 438.54660591 -67.03874888 438.53637847 -70.82991028 438.52139282 C-71.93542809 438.52808499 -73.0409459 438.53477715 -74.17996424 438.54167211 C-80.68486842 438.49164138 -85.12255966 437.81505745 -90.36990356 433.66778564 C-94.12059915 429.55314117 -95.4460628 426.14400548 -95.67459106 420.56622314 C-95.31945789 415.4374394 -93.37561137 412.14312157 -90.06912231 408.32794189 C-85.63524487 404.54292457 -82.75990288 403.889289 -76.91342163 403.86196899 C-76.252552 403.85617659 -75.59168237 403.85038419 -74.91078639 403.84441626 C-72.69821598 403.82742247 -70.48585425 403.82454035 -68.27322388 403.82159424 C-66.68644194 403.81229562 -65.09966491 403.80212705 -63.51289368 403.79115295 C-59.20542707 403.76383138 -54.8979932 403.74869716 -50.59046268 403.73572493 C-46.08874311 403.72010384 -41.5870905 403.69331036 -37.0854187 403.66769409 C-28.56095375 403.62088821 -20.03647622 403.58415285 -11.51194835 403.55102122 C-1.80704121 403.51281262 7.89779871 403.46339915 17.60264921 403.41303706 C37.56617575 403.30969029 57.52974483 403.2204388 77.49337769 403.14044189 C76.48307495 402.40438721 75.47277222 401.66833252 74.43185425 400.90997314 C73.08251646 399.92436989 71.73323564 398.93868865 70.38400269 397.95294189 C69.72094116 397.47018799 69.05787964 396.98743408 68.37472534 396.49005127 C53.08433338 385.30836586 53.08433338 385.30836586 50.32423401 381.54730225 C47.48441434 379.36513774 44.46488833 379.72613569 41.02780151 379.75567627 C40.2696817 379.7503035 39.51156189 379.74493073 38.73046875 379.73939514 C37.083749 379.72961088 35.43697765 379.72667496 33.7902317 379.72975159 C31.17896092 379.73422867 28.5683683 379.72023043 25.95716858 379.70135498 C20.40674949 379.66453992 14.85640086 379.6508698 9.30587769 379.64044189 C2.88974593 379.62834595 -3.52605689 379.60665307 -9.9420414 379.56044006 C-12.50562778 379.54692369 -15.06879279 379.55103227 -17.63240051 379.55584717 C-19.21963016 379.54649843 -20.80685526 379.53632757 -22.39407349 379.52520752 C-23.09930649 379.53135574 -23.80453949 379.53750397 -24.53114319 379.5438385 C-30.02271889 379.4767445 -35.79571136 378.51817008 -40.04085064 374.79477692 C-43.60622425 370.72797656 -45.27974982 367.1444823 -45.88162231 361.82794189 C-45.2846611 355.95782331 -43.21866241 351.76896784 -38.94412231 347.70294189 C-35.34741511 345.39736035 -32.66163017 345.01660237 -28.48440552 345.0269165 C-27.46357376 345.02699203 -26.442742 345.02706757 -25.39097595 345.02714539 C-24.29089706 345.03230667 -23.19081818 345.03746796 -22.05740356 345.04278564 C-20.36577339 345.04490807 -20.36577339 345.04490807 -18.63996887 345.04707336 C-15.0329932 345.05267719 -11.42607927 345.06523036 -7.81912231 345.07794189 C-5.37576384 345.0829564 -2.93240438 345.08751939 -0.48904419 345.09161377 C5.50511756 345.10264786 11.49924321 345.11938974 17.49337769 345.14044189 C16.83603638 344.10145752 16.17869507 343.06247314 15.50143433 341.99200439 C-0.95513993 315.88943237 -12.37126915 289.4951017 -18.50662231 259.14044189 C-18.68451294 258.30110107 -18.86240356 257.46176025 -19.04568481 256.59698486 C-24.09610987 231.99119377 -23.49050697 203.69032834 -18.50662231 179.14044189 C-18.33501587 178.28176514 -18.16340942 177.42308838 -17.98660278 176.53839111 C-13.26081132 153.60204311 -5.03441547 133.01210612 5.49337769 112.14044189 C5.82337769 111.48044189 6.15337769 110.82044189 6.49337769 110.14044189 C5.38361572 110.13679626 4.27385376 110.13315063 3.13046265 110.12939453 C-7.34511465 110.0923996 -17.82039921 110.0345776 -28.29575348 109.95653915 C-33.68083386 109.91708645 -39.06575125 109.88488703 -44.45095825 109.8694458 C-49.65126274 109.85426485 -54.85111908 109.81979333 -60.05122375 109.77213287 C-62.03182574 109.75733399 -64.01249171 109.74940174 -65.9931488 109.74855804 C-68.7748146 109.74618216 -71.55524815 109.71905262 -74.33670044 109.68634033 C-75.55590683 109.69388588 -75.55590683 109.69388588 -76.79974365 109.70158386 C-82.44625549 109.59932979 -86.78266691 108.29461758 -91.50662231 105.14044189 C-96.4480641 99.8188892 -96.85588596 96.23224274 -96.78787231 89.12481689 C-96.28600256 83.79942114 -93.75276855 81.23823739 -89.88162231 77.82794189 C-86.54594545 75.4578557 -84.96815963 75.02400442 -80.93441772 75.13026428 C-79.97059174 75.15226898 -79.00676575 75.17427368 -78.01373291 75.19694519 C-76.9520993 75.22575272 -75.8904657 75.25456024 -74.79666138 75.28424072 C-72.48225525 75.33700274 -70.16782056 75.38852269 -67.85336304 75.4389801 C-66.61953133 75.46636072 -65.38569962 75.49374134 -64.11447906 75.52195168 C-56.87726973 75.66420355 -49.6389658 75.72655 -42.40068865 75.78909266 C-34.75512755 75.85519451 -27.11437651 75.95538648 -19.47146606 76.17242432 C13.2694057 79.03021204 13.2694057 79.03021204 42.41624641 68.02226162 C46.46592518 64.12422179 49.53014221 59.623176 52.49772644 54.88192749 C56.02486617 50.03659051 60.8174778 46.80297511 65.68087769 43.39044189 C67.0013485 42.43729347 67.0013485 42.43729347 68.34849548 41.46488953 C71.35913113 39.29580043 74.40589416 37.19876424 77.49337769 35.14044189 C76.41675873 35.13457565 75.34013977 35.12870941 74.230896 35.12266541 C64.07847888 35.06542091 53.9262756 34.99265011 43.77407646 34.90472698 C38.5548749 34.86002377 33.3357514 34.82076741 28.11642456 34.79400635 C23.07827949 34.76797306 18.04043478 34.72757018 13.00247574 34.67725563 C11.08162297 34.66058714 9.16071825 34.64907276 7.23980331 34.64282799 C4.54650225 34.63318678 1.85396959 34.60512723 -0.83914185 34.57281494 C-1.63108444 34.57425003 -2.42302704 34.57568512 -3.2389679 34.5771637 C-8.71306532 34.48444865 -12.96315441 33.46037462 -17.15115356 29.64044189 C-21.61160404 23.91197038 -22.27248221 19.23812941 -21.50662231 12.14044189 C-19.74277438 6.79850242 -16.36249962 3.8266719 -11.50662231 1.14044189 C-7.65262678 -0.14422328 -4.0163025 -0.00421148 0 0 Z M131.49337769 101.14044189 C130.58458862 101.63286377 129.67579956 102.12528564 128.73947144 102.63262939 C98.87691285 119.60108162 76.41441529 148.8765242 67.12667847 181.83233643 C66.91768921 182.59401123 66.70869995 183.35568604 66.49337769 184.14044189 C66.17796021 185.25781738 66.17796021 185.25781738 65.85617065 186.39776611 C59.92524805 208.22900853 60.40071079 232.40809432 66.49337769 254.14044189 C66.67529663 254.810271 66.85721558 255.4801001 67.04464722 256.17022705 C69.91610215 266.46281486 74.46427426 275.7733328 79.49337769 285.14044189 C80.32675659 286.73372314 80.32675659 286.73372314 81.17697144 288.35919189 C97.4203097 317.96335757 127.53761642 339.64307745 159.49337769 349.14044189 C195.77190766 358.93960789 232.56396847 354.462621 265.29049683 335.99786377 C275.49287256 330.02111363 284.18762048 322.52749526 292.49337769 314.14044189 C293.18818237 313.49204346 293.88298706 312.84364502 294.59884644 312.17559814 C312.99849287 294.74253727 323.5514399 271.41134098 329.49337769 247.14044189 C329.73056519 246.17622314 329.96775269 245.21200439 330.21212769 244.21856689 C337.04912185 211.84338867 329.74913845 175.16980779 311.93087769 147.45294189 C308.06650966 141.77715136 303.94732744 136.36475672 299.49337769 131.14044189 C298.83466675 130.35927002 298.17595581 129.57809814 297.49728394 128.77325439 C293.16939788 123.76201791 288.66764339 119.27150887 283.49337769 115.14044189 C282.7460437 114.54126953 282.7460437 114.54126953 281.98361206 113.92999268 C267.69262962 102.60720195 252.08152888 94.06189705 234.49337769 89.14044189 C233.49306519 88.84653564 232.49275269 88.55262939 231.46212769 88.24981689 C197.88969915 79.04447359 161.70541089 84.35220297 131.49337769 101.14044189 Z " fill="#000000" transform="translate(96.50662231445313,36.85955810546875)"/>
<path d="M0 0 C9.55733233 2.42008591 18.85248427 5.54017387 28.1875 8.6875 C29.72711893 9.20405813 31.26683185 9.72033619 32.80664062 10.23632812 C36.5388504 11.48766376 40.26977288 12.74276703 44 14 C44.12407227 15.01537842 44.24814453 16.03075684 44.37597656 17.0769043 C44.54726607 18.43020871 44.71883015 19.78347839 44.890625 21.13671875 C44.97135254 21.80344604 45.05208008 22.47017334 45.13525391 23.15710449 C46.34620839 32.57660047 49.57640432 39.99215589 55.0234375 47.7109375 C56 50 56 50 55.53515625 52.265625 C53.3319492 56.18991237 50.73542769 59.75902556 48.0625 63.375 C47.48927002 64.1592334 46.91604004 64.9434668 46.32543945 65.75146484 C44.55514772 68.17124594 42.77776328 70.58570498 41 73 C39.8978825 74.50480201 38.79629699 76.00999383 37.6953125 77.515625 C35.13558548 81.01439224 32.56967711 84.5085349 30 88 C18.01385933 82.78748408 10.5917561 66.18914646 5.6875 54.75 C-0.59211721 38.45930597 -4.91774826 17.12425779 0 0 Z " fill="#000000" transform="translate(192,240)"/>
<path d="M0 0 C1.06476563 0.22816406 2.12953125 0.45632813 3.2265625 0.69140625 C15.52750042 3.18351101 26.81567671 3.65529699 39 0 C44.74418651 6.90690705 50.028247 14.09978374 55.25463867 21.40185547 C55.78162354 22.13807129 56.3086084 22.87428711 56.8515625 23.6328125 C57.3662207 24.35629883 57.88087891 25.07978516 58.41113281 25.82519531 C59.5001307 27.31579046 60.62131346 28.78324606 61.76855469 30.22949219 C62.32704102 30.93493164 62.88552734 31.64037109 63.4609375 32.3671875 C63.97188965 32.9947998 64.4828418 33.62241211 65.00927734 34.26904297 C65.49968506 35.1258667 65.49968506 35.1258667 66 36 C65.67 36.99 65.34 37.98 65 39 C62.59649964 40.16093602 60.31565603 41.1096369 57.8125 42 C57.09433105 42.26127686 56.37616211 42.52255371 55.63623047 42.79174805 C29.41083756 52.04250573 1.86082659 50.83991357 -23.5 39.6875 C-24.655 39.130625 -25.81 38.57375 -27 38 C-23.88222417 32.23403926 -20.23611126 27.05648623 -16.3125 21.8125 C-15.69616699 20.98258545 -15.07983398 20.1526709 -14.44482422 19.29760742 C-12.63414209 16.86185948 -10.81807307 14.43023439 -9 12 C-8.49549316 11.32453125 -7.99098633 10.6490625 -7.47119141 9.953125 C-4.988267 6.62975904 -2.49858597 3.31161791 0 0 Z " fill="#000000" transform="translate(274,310)"/>
<path d="M0 0 C6.34734445 19.04203336 -0.42440193 44.43791044 -8.92724609 61.90478516 C-13.07986478 69.97544712 -18.15309588 77.07705809 -24 84 C-24.50917969 84.75023437 -25.01835937 85.50046875 -25.54296875 86.2734375 C-26.02378906 86.84320313 -26.50460937 87.41296875 -27 88 C-27.99 88 -28.98 88 -30 88 C-31.32763672 86.63330078 -31.32763672 86.63330078 -32.6796875 84.6953125 C-33.19055908 83.97456543 -33.70143066 83.25381836 -34.2277832 82.51123047 C-34.77136475 81.72377441 -35.31494629 80.93631836 -35.875 80.125 C-37.03225384 78.48416461 -38.18981546 76.84354627 -39.34765625 75.203125 C-39.94465332 74.35041016 -40.54165039 73.49769531 -41.15673828 72.61914062 C-44.16736817 68.34125487 -47.24223358 64.11017418 -50.3125 59.875 C-51.41306766 58.35178444 -52.51335666 56.82836749 -53.61328125 55.3046875 C-54.07516846 54.66515137 -54.53705566 54.02561523 -55.01293945 53.36669922 C-55.33866943 52.91568848 -55.66439941 52.46467773 -56 52 C-55.45730469 50.97261719 -54.91460937 49.94523437 -54.35546875 48.88671875 C-49.28708514 39.13819325 -45.36220263 30.26052687 -44.43359375 19.17578125 C-44.35036865 18.20165283 -44.26714355 17.22752441 -44.18139648 16.22387695 C-44.12153564 15.48999756 -44.0616748 14.75611816 -44 14 C-11.98583984 3.32861328 -11.98583984 3.32861328 -9.92596436 2.64459229 C-8.14562027 2.04873699 -6.37063531 1.43693307 -4.59619141 0.82373047 C-2 0 -2 0 0 0 Z " fill="#000000" transform="translate(395,240)"/>
<path d="M0 0 C21.88552908 2.43172545 45.20649661 13.4609386 59.3203125 30.875 C60.15175781 31.926875 60.15175781 31.926875 61 33 C62.10988281 34.299375 62.10988281 34.299375 63.2421875 35.625 C75 49.50307377 75 49.50307377 75 55 C69.39801894 56.86085514 63.79294962 58.71197381 58.18481445 60.55419922 C56.27801245 61.18207435 54.37207676 61.81258684 52.46704102 62.44580078 C49.72636605 63.3562623 46.98270097 64.25714914 44.23828125 65.15625 C42.96456413 65.5827887 42.96456413 65.5827887 41.66511536 66.01794434 C33.82722598 68.56646021 33.82722598 68.56646021 30 68 C27.71875 65.953125 27.71875 65.953125 25.5 63.25 C18.03816713 54.26427168 11.26352266 51.63176133 0 46 C0 30.82 0 15.64 0 0 Z " fill="#000000" transform="translate(310,155)"/>
<path d="M0 0 C0 15.18 0 30.36 0 46 C-7.92 49.96 -7.92 49.96 -16 54 C-21.2973776 58.40573978 -26.02989414 62.39816778 -30 68 C-35.95082276 67.43030318 -41.21710763 66.17296471 -46.875 64.27734375 C-47.68493408 64.01240616 -48.49486816 63.74746857 -49.3293457 63.47450256 C-51.88853021 62.63564742 -54.44425319 61.78676391 -57 60.9375 C-58.74587386 60.36326333 -60.49196576 59.7896891 -62.23828125 59.21679688 C-66.49474587 57.81884187 -70.74813834 56.41188984 -75 55 C-66.27184076 32.65749379 -45.24511637 15.66933705 -23.875 6.1875 C-16.08190651 2.84123426 -8.56540092 0 0 0 Z " fill="#000000" transform="translate(277,155)"/>
<path d="M0 0 C5.86219367 5.80443807 9.09173393 11.41081395 9.5 19.8125 C9.27999159 27.14611377 7.03798232 32.69864422 2.0625 38.10546875 C-3.68772259 43.38739669 -9.08648797 45.84808267 -17 46 C-25.82406866 45.36870733 -31.25354117 41.84771448 -37.3125 35.625 C-41.51813427 29.08290224 -43.02099807 22.75723825 -42 15 C-40.16580281 7.2825288 -36.55120512 2.41253779 -30 -2 C-20.4466887 -7.4275626 -8.53650545 -7.34536516 0 0 Z " fill="#000000" transform="translate(310,236)"/>
</svg>
